<?xml version="1.0" standalone="no"?>
<!DOCTYPE svg PUBLIC "-//W3C//DTD SVG 20010904//EN"
 "http://www.w3.org/TR/2001/REC-SVG-20010904/DTD/svg10.dtd">
<svg version="1.0" xmlns="http://www.w3.org/2000/svg"
 width="460.000000pt" height="460.000000pt" viewBox="0 0 460.000000 460.000000"
 preserveAspectRatio="xMidYMid meet">
<metadata>
Created by potrace 1.11, written by Peter Selinger 2001-2013
</metadata>
<g transform="translate(0.000000,460.000000) scale(0.100000,-0.100000)"
fill="#000000" stroke="none">
<path d="M0 3689 l0 -911 47 6 c27 3 111 11 188 17 77 7 158 13 180 15 90 7
143 12 198 19 37 4 62 3 71 -4 10 -8 18 -6 34 8 23 19 65 18 91 -3 11 -8 15
-8 18 2 3 6 20 12 39 12 21 0 33 4 29 10 -4 6 7 10 26 10 31 0 32 -1 13 -16
-24 -19 1 -7 39 18 20 15 41 19 82 17 30 -1 58 0 62 4 3 4 39 7 79 7 40 0 76
5 79 10 3 6 14 10 23 10 15 0 15 -2 2 -11 -12 -9 -11 -9 5 -4 70 25 203 35
190 15 -4 -6 7 -10 27 -10 l33 1 -25 14 -25 15 29 -6 c21 -5 27 -4 22 5 -5 7
4 11 27 11 36 0 33 -3 181 155 26 28 79 87 119 133 l72 83 225 -7 c124 -4 235
-10 248 -15 14 -6 32 -29 46 -61 13 -29 35 -75 48 -103 129 -258 115 -236 150
-231 18 2 56 11 83 19 76 23 125 36 125 32 0 -2 -28 -20 -62 -40 -70 -40 -49
-38 56 6 95 40 101 36 24 -18 -36 -27 -67 -52 -68 -57 -6 -17 25 -46 48 -46
13 0 79 29 146 65 l122 65 105 -44 c150 -62 157 -62 279 -21 57 19 111 35 119
34 9 0 46 -41 83 -90 l66 -90 6 -117 c4 -64 9 -143 12 -175 l5 -58 -123 -57
c-68 -32 -147 -69 -175 -82 -76 -34 -65 -42 18 -14 39 13 77 24 85 24 8 0 29
7 46 16 17 9 42 18 56 20 13 3 37 11 53 19 15 8 34 15 41 15 22 0 158 -211
158 -245 0 -64 -28 -94 -128 -138 -51 -22 -112 -57 -135 -77 -34 -30 -240
-140 -262 -140 -3 0 -41 -18 -85 -40 -45 -21 -96 -42 -115 -46 -59 -11 -60 -8
54 -160 206 -274 209 -278 204 -309 -5 -32 -81 -93 -423 -339 -151 -109 -265
-192 -458 -333 -147 -107 -149 -107 -361 -18 -85 36 -158 68 -162 72 -24 26
-202 311 -202 323 0 8 1 25 2 36 0 14 66 88 174 196 l172 174 186 92 c103 51
190 92 193 92 3 0 28 13 54 30 72 44 151 87 205 111 26 12 47 25 47 29 0 4 10
5 23 3 27 -5 68 23 50 35 -7 4 -15 26 -18 48 -6 33 -14 44 -46 62 -27 16 -39
19 -40 10 -2 -25 3 -43 18 -60 8 -9 10 -18 5 -22 -13 -8 -39 36 -100 169 -74
163 -105 236 -162 385 -68 173 -142 330 -156 330 -14 0 -73 -26 -95 -42 -13
-9 -26 -6 -64 12 -46 22 -49 23 -100 6 -70 -22 -118 -55 -130 -91 -13 -39 -26
-53 -61 -61 -16 -4 -31 -10 -34 -13 -9 -11 -80 -41 -96 -41 -9 0 -27 -9 -41
-20 -14 -11 -32 -20 -39 -20 -8 0 -23 -5 -34 -10 -11 -5 -29 -14 -39 -20 -24
-11 -71 -6 -98 11 -45 28 -145 -19 -175 -83 -19 -40 -52 -68 -81 -68 -10 0
-31 -6 -45 -14 -15 -8 -48 -24 -74 -36 -27 -12 -50 -25 -53 -30 -3 -4 -14 -6
-25 -3 -33 9 -23 -11 16 -32 20 -11 44 -31 53 -45 8 -14 19 -27 22 -30 4 -3
28 -36 53 -75 l46 -70 -6 -90 -6 -90 65 -137 c53 -110 127 -301 127 -326 0 -3
-11 5 -25 18 -17 16 -29 20 -35 14 -6 -6 -14 -64 -18 -130 -10 -152 -22 -173
-97 -174 -52 0 -208 -17 -236 -25 -8 -3 -36 -40 -62 -83 -26 -42 -56 -87 -66
-99 -33 -39 -383 -207 -453 -216 -86 -12 -359 119 -468 224 -34 32 -96 77
-118 84 -23 7 -23 6 -20 -55 3 -58 4 -61 26 -57 17 3 22 1 18 -10 -3 -8 -6
-16 -6 -19 0 -2 -6 -1 -14 2 -8 3 -17 1 -20 -4 -3 -6 1 -12 9 -16 8 -3 15 -13
15 -23 0 -13 5 -10 20 12 11 17 20 25 20 20 0 -6 -5 -16 -12 -23 -9 -9 -9 -12
0 -12 25 0 11 -20 -15 -21 -25 -1 -25 -2 7 -9 22 -5 40 -5 48 2 22 19 36 -6
15 -27 -17 -18 -17 -18 8 -13 19 3 25 0 26 -13 1 -10 -4 -20 -10 -22 -7 -2 -3
-3 7 -1 11 2 26 -2 32 -7 7 -6 22 -8 34 -4 16 5 19 10 10 20 -9 11 -7 14 9 12
24 -1 25 -5 11 -43 -8 -19 -8 -30 0 -38 9 -8 11 -6 8 9 -2 16 3 21 31 23 21 2
31 0 26 -7 -3 -6 -1 -11 5 -11 6 0 13 7 16 15 6 14 8 13 20 -2 10 -14 13 -15
14 -3 0 10 3 11 11 3 16 -16 2 -33 -25 -33 -13 0 -29 -6 -35 -14 -9 -11 -6
-13 19 -11 17 1 33 5 37 9 3 3 15 6 25 6 10 0 18 5 18 11 0 5 5 7 11 3 6 -3 9
-15 6 -25 -5 -20 7 -26 18 -9 10 17 25 11 25 -9 0 -23 16 -36 25 -20 4 5 13 8
21 5 8 -3 14 1 14 9 0 19 -15 19 -34 -1 -12 -12 -16 -12 -16 -2 0 18 39 42 72
44 15 1 44 4 65 8 l38 6 -30 -14 c-29 -13 -27 -14 38 -11 63 3 67 2 62 -15 -5
-16 -1 -18 22 -16 18 2 28 9 27 19 -1 9 5 14 15 12 9 -2 20 -4 25 -4 5 -1 1
-10 -8 -20 -18 -19 -17 -19 31 -7 27 7 60 9 76 5 20 -5 27 -4 27 6 0 8 8 18
17 24 10 5 14 13 10 17 -5 5 -12 2 -16 -5 -6 -9 -11 -10 -15 -3 -4 6 3 16 16
23 16 9 23 9 26 0 2 -6 8 -9 13 -5 5 3 9 -1 9 -8 1 -8 6 -6 15 6 8 11 15 14
15 8 0 -20 17 -13 23 9 3 12 10 18 16 15 6 -4 8 -13 5 -20 -10 -26 17 -28 37
-2 25 32 31 32 66 0 l28 -27 -33 5 c-18 3 -35 1 -38 -4 -3 -4 7 -8 23 -8 15 0
39 -3 53 -5 22 -5 22 -4 5 4 -11 5 -16 10 -11 10 5 1 3 7 -3 15 -16 19 -4 43
25 49 17 3 24 1 21 -8 -4 -8 9 -12 39 -13 42 -2 57 9 32 24 -6 4 -14 2 -16 -4
-2 -6 -10 -8 -18 -5 -20 8 -7 23 21 23 13 0 25 5 27 11 3 9 9 9 24 1 17 -9 30
-6 67 14 26 13 47 20 47 15 0 -6 16 -3 35 5 33 13 40 12 36 -10 -1 -5 12 -6
30 -2 17 3 38 6 45 6 8 0 14 11 14 27 0 26 0 26 22 7 13 -12 18 -13 13 -4 -5
9 0 8 13 -4 12 -11 25 -16 29 -13 3 4 1 7 -5 7 -7 0 -12 6 -12 13 1 6 9 2 19
-10 11 -13 25 -23 31 -23 10 0 10 3 1 14 -9 11 -8 15 4 20 9 3 13 2 10 -3 -8
-13 29 -23 58 -16 30 8 46 -11 17 -20 -11 -4 -18 -10 -15 -15 3 -5 16 -5 30 0
17 6 25 6 25 -1 0 -6 4 -8 9 -5 13 8 32 -19 26 -36 -4 -9 3 -14 20 -16 14 -1
23 2 20 8 -3 5 4 14 15 20 23 13 23 13 9 -29 -9 -26 -15 -31 -33 -26 -18 5
-18 4 4 -10 14 -9 17 -14 8 -11 -10 3 -20 1 -23 -4 -12 -20 18 -20 83 0 38 11
78 20 88 20 19 -1 19 -1 0 -15 -10 -8 -23 -12 -27 -9 -5 3 -9 1 -9 -5 0 -6 12
-8 32 -4 21 4 29 3 25 -4 -5 -7 6 -11 27 -11 19 0 39 -3 44 -6 6 -3 12 -2 14
4 2 6 15 7 32 2 l28 -8 -28 -14 c-16 -7 -32 -13 -36 -12 -5 1 -8 -3 -8 -8 0
-14 24 -12 38 2 12 12 102 19 102 9 0 -3 -12 -16 -27 -29 l-28 -23 32 16 c18
8 39 15 48 15 8 0 15 7 15 15 0 8 5 15 11 15 7 0 9 -10 5 -26 -5 -17 -3 -23 4
-19 5 3 10 1 10 -4 0 -6 5 -11 10 -11 6 0 10 7 10 15 0 19 4 19 39 0 16 -8 30
-12 33 -10 4 5 67 15 116 19 18 1 35 -1 38 -6 3 -4 15 -8 26 -8 12 0 30 -7 40
-17 17 -15 18 -15 18 5 0 12 5 22 11 22 6 0 8 -9 4 -20 -5 -14 -2 -20 9 -20 9
0 17 5 17 10 1 6 2 15 3 21 0 7 9 17 19 23 14 8 20 8 28 -4 9 -13 10 -12 5 2
-4 13 2 20 20 24 28 7 45 -3 25 -15 -9 -6 -6 -10 11 -14 34 -10 38 -9 31 9 -5
14 -3 14 15 3 27 -17 42 -3 17 15 -21 15 -13 22 40 31 l40 7 -30 -26 c-16 -14
-25 -25 -20 -26 13 0 93 49 80 50 -21 1 30 30 54 30 13 0 22 3 18 6 -8 8 25
44 35 38 4 -3 8 0 8 6 0 6 4 8 10 5 14 -9 60 24 54 40 -6 15 30 30 46 20 5 -3
10 -2 10 4 0 5 20 9 44 8 37 -2 42 0 33 12 -10 11 -8 13 12 6 16 -5 21 -4 17
4 -9 13 -46 15 -46 2 0 -5 -9 -7 -20 -4 -25 7 -27 23 -2 21 9 -1 34 0 54 0 36
2 37 3 31 32 -5 26 -2 30 15 30 24 0 38 16 20 23 -7 2 1 7 18 11 18 4 40 16
50 27 9 10 23 19 31 19 7 0 13 4 13 9 0 5 14 11 32 15 17 3 37 15 45 26 7 10
20 17 27 14 8 -3 17 3 21 15 6 21 38 36 55 26 5 -3 10 1 10 9 0 9 5 16 11 16
6 0 9 -9 6 -20 -6 -24 1 -25 39 -5 l29 15 -27 0 c-18 0 -28 5 -28 15 0 8 6 12
14 9 7 -3 16 2 19 10 7 18 48 21 63 6 14 -14 56 0 50 16 -7 19 12 28 29 14 12
-10 15 -10 15 1 0 10 3 10 12 1 7 -7 19 -12 28 -12 12 0 12 2 1 9 -9 6 -3 10
20 13 24 4 38 0 46 -11 12 -15 14 -14 28 4 9 11 18 19 20 18 3 -2 6 -3 8 -2
25 8 45 4 65 -12 30 -23 79 -26 79 -4 0 10 -6 14 -16 10 -27 -11 -33 -10 -38
3 -3 8 5 12 24 12 16 0 34 5 40 11 7 7 22 8 47 1 26 -8 35 -7 33 1 -1 7 13 12
36 13 36 1 38 -1 34 -23 -2 -14 2 -31 12 -41 9 -10 13 -13 9 -8 -14 17 -9 34
12 41 11 4 17 11 14 17 -4 6 3 5 15 -2 16 -8 26 -8 35 -1 8 7 20 6 38 -3 l26
-14 2 308 c0 203 -3 311 -10 315 -5 3 -10 2 -10 -2 0 -10 -85 -11 -95 -1 -4 4
-13 4 -21 1 -8 -3 -14 -2 -13 3 4 21 -2 26 -16 14 -8 -7 -24 -10 -35 -7 -11 3
-20 1 -20 -4 0 -5 -10 -9 -22 -9 -19 0 -20 2 -8 10 13 8 11 13 -9 32 -14 13
-19 15 -12 6 12 -17 11 -17 -19 -11 -24 4 -31 3 -26 -5 4 -7 1 -12 -7 -12 -8
0 -17 6 -20 14 -4 10 -17 13 -46 9 -34 -5 -41 -3 -41 11 0 10 -9 16 -22 17
-13 0 -17 3 -10 6 6 2 12 10 12 16 -1 7 -8 3 -18 -9 -10 -11 -23 -19 -30 -16
-10 3 -10 7 -1 18 9 11 7 14 -15 14 -32 0 -33 7 -2 31 16 13 22 26 19 39 -3
10 -8 19 -12 18 -20 -2 -30 4 -25 17 3 8 9 13 12 12 13 -4 15 8 8 47 -7 34 -4
42 22 70 59 63 161 203 197 271 20 39 52 97 71 130 18 33 48 85 65 117 18 33
40 59 52 62 15 4 18 8 10 14 -9 5 -4 23 18 66 17 32 28 61 25 63 -3 3 -32 -15
-65 -41 -34 -25 -61 -42 -61 -37 0 32 67 146 119 203 34 37 61 76 61 87 0 25
-4 26 -35 5 -22 -15 -25 -15 -25 -1 0 9 4 19 10 22 13 8 13 66 0 101 -12 30
-6 44 12 26 35 -35 37 -18 38 287 l0 298 -301 9 c-219 7 -303 12 -306 21 -3 8
13 13 49 16 l53 3 -51 2 -51 2 3 48 c1 26 5 139 9 252 3 113 8 234 10 270 2
36 7 143 10 238 l6 172 -2015 0 -2016 0 0 -911z m4075 -1969 c3 -5 1 -10 -4
-10 -6 0 -11 5 -11 10 0 6 2 10 4 10 3 0 8 -4 11 -10z m-175 -820 c0 -5 -5
-10 -11 -10 -5 0 -7 5 -4 10 3 6 8 10 11 10 2 0 4 -4 4 -10z m-504 -289 c-4
-6 -16 -11 -26 -11 -19 0 -19 1 -3 20 17 20 42 12 29 -9z m-3296 -5 c0 -3 -4
-8 -10 -11 -5 -3 -10 -1 -10 4 0 6 5 11 10 11 6 0 10 -2 10 -4z m1510 -42 c0
-14 -3 -14 -15 -4 -8 7 -15 14 -15 16 0 2 7 4 15 4 8 0 15 -7 15 -16z m1610
-48 c0 -2 -7 -7 -16 -10 -8 -3 -12 -2 -9 4 6 10 25 14 25 6z m-3020 -20 c0 -3
-4 -8 -10 -11 -5 -3 -10 -1 -10 4 0 6 5 11 10 11 6 0 10 -2 10 -4z m80 -6 c0
-5 -4 -10 -10 -10 -5 0 -10 5 -10 10 0 6 5 10 10 10 6 0 10 -4 10 -10z m2860
-17 c0 -11 -33 -43 -44 -43 -6 0 -4 5 4 10 10 6 11 10 3 10 -19 0 -16 18 5 23
27 7 32 7 32 0z m-1159 -26 c-10 -9 -11 -8 -5 6 3 10 9 15 12 12 3 -3 0 -11
-7 -18z m-1131 -41 c0 -3 -4 -8 -10 -11 -5 -3 -10 -1 -10 4 0 6 5 11 10 11 6
0 10 -2 10 -4z m1643 -83 c-7 -2 -19 -2 -25 0 -7 3 -2 5 12 5 14 0 19 -2 13
-5z"/>
<path d="M4199 4581 c0 -9 -2 -25 -4 -36 -2 -11 3 -28 12 -37 15 -17 15 -18 0
-18 -24 0 -23 -65 1 -79 15 -9 15 -10 1 -11 -23 0 -33 -40 -11 -40 14 -1 14
-2 -2 -12 -18 -10 -18 -11 5 -24 19 -10 20 -13 7 -14 -10 0 -18 -3 -18 -7 0
-5 -3 -18 -6 -30 -6 -20 -3 -23 24 -23 36 0 62 -9 62 -21 0 -5 -12 -4 -26 1
-14 6 -32 10 -40 10 -23 0 -16 -18 9 -23 19 -4 18 -4 -5 -6 -20 -1 -28 -6 -28
-20 0 -11 -2 -26 -5 -33 -4 -9 4 -19 17 -26 18 -8 19 -11 6 -11 -20 -1 -20 0
-23 -58 -1 -36 2 -43 19 -46 20 -4 20 -4 -1 -6 -16 -1 -23 -7 -23 -21 0 -11 5
-20 11 -20 5 0 7 -5 3 -11 -3 -6 0 -15 7 -20 11 -7 10 -9 -4 -9 -14 0 -18 -7
-16 -28 2 -15 0 -32 -4 -39 -4 -6 -7 -33 -7 -60 0 -26 -2 -66 -4 -88 -2 -22
-4 -52 -5 -66 -1 -18 -8 -29 -23 -34 -20 -7 -19 -9 12 -12 19 -2 131 -7 248
-11 l212 -7 0 227 0 227 -22 4 -23 4 23 2 c20 1 22 6 22 61 0 33 -4 60 -10 60
-5 0 -10 -4 -10 -10 0 -5 -4 -10 -10 -10 -18 0 -11 22 9 27 17 4 19 15 20 78
0 54 -3 78 -15 89 -13 14 -12 19 6 18 3 0 6 16 8 36 2 28 -3 41 -20 54 l-23
17 23 -6 c20 -5 22 -2 22 37 0 29 -6 48 -17 57 -17 14 -17 14 0 9 9 -3 17 -1
17 4 0 6 -6 10 -12 10 -9 0 -8 4 2 10 10 7 -50 10 -187 9 -181 -1 -203 -3
-204 -18z m91 -1 c12 -8 9 -10 -13 -10 -16 0 -26 4 -22 10 8 12 16 12 35 0z
m123 -17 c-7 -2 -19 -2 -25 0 -7 3 -2 5 12 5 14 0 19 -2 13 -5z m113 -8 c-8
-8 -20 -15 -27 -15 -9 0 -8 4 1 15 7 8 19 15 27 15 12 0 12 -2 -1 -15z m-186
-3 c0 -5 -19 -14 -41 -21 -33 -10 -44 -10 -53 0 -8 9 -8 10 1 5 6 -3 14 -2 18
3 3 6 12 8 20 5 7 -3 22 -1 32 5 22 13 23 13 23 3z m118 1 c-20 -5 -25 -23 -6
-23 6 0 9 -2 7 -5 -3 -2 -15 -2 -27 2 -18 4 -20 8 -11 19 6 8 21 13 33 13 17
-1 17 -2 4 -6z m-123 -33 c3 -5 1 -10 -4 -10 -6 0 -11 5 -11 10 0 6 2 10 4 10
3 0 8 -4 11 -10z m45 -6 c0 -2 -7 -4 -15 -4 -8 0 -15 4 -15 10 0 5 7 7 15 4 8
-4 15 -8 15 -10z m-92 -11 c-10 -2 -26 -2 -35 0 -10 3 -2 5 17 5 19 0 27 -2
18 -5z m295 -20 c-7 -2 -21 -2 -30 0 -10 3 -4 5 12 5 17 0 24 -2 18 -5z m-263
-13 c0 -5 -5 -10 -11 -10 -5 0 -7 5 -4 10 3 6 8 10 11 10 2 0 4 -4 4 -10z
m100 -14 c0 -8 12 -19 28 -24 25 -10 26 -10 4 -11 -13 -1 -30 5 -38 13 -16 17
-57 9 -50 -9 3 -9 -4 -8 -24 3 -28 16 -28 17 -9 24 12 5 25 6 30 2 5 -3 17 0
26 5 25 14 33 13 33 -3z m-153 -2 c-3 -3 -12 -4 -19 -1 -8 3 -5 6 6 6 11 1 17
-2 13 -5z m258 -14 c7 -12 -2 -12 -30 0 -19 8 -19 9 2 9 12 1 25 -3 28 -9z
m-255 -10 c11 -8 7 -10 -17 -8 -17 1 -29 6 -27 10 7 11 26 10 44 -2z m315 -20
c-3 -5 -11 -10 -16 -10 -6 0 -7 5 -4 10 3 6 11 10 16 10 6 0 7 -4 4 -10z
m-321 -8 c7 -12 -12 -38 -21 -29 -4 5 -1 12 6 17 11 6 10 9 -5 13 -16 4 -16 5
-2 6 9 0 19 -3 22 -7z m49 -9 c-7 -2 -19 -2 -25 0 -7 3 -2 5 12 5 14 0 19 -2
13 -5z m47 -3 c8 -5 11 -10 5 -10 -5 0 -17 5 -25 10 -8 5 -10 10 -5 10 6 0 17
-5 25 -10z m217 -6 c-3 -3 -12 -4 -19 -1 -8 3 -5 6 6 6 11 1 17 -2 13 -5z
m-171 -37 c3 -3 1 -8 -5 -12 -6 -3 -11 -2 -11 3 0 6 -9 8 -20 5 -11 -3 -20 -9
-20 -14 0 -5 -7 -6 -15 -3 -26 10 1 30 35 28 17 -1 34 -4 36 -7z m124 -10 c13
-5 13 -6 -1 -6 -8 -1 -24 6 -35 15 -19 15 -19 15 1 6 11 -5 27 -12 35 -15z
m-240 6 c-8 -3 -18 -10 -21 -14 -3 -5 -13 -3 -23 4 -15 11 -13 13 21 14 21 1
31 -1 23 -4z m40 -53 c0 -5 -5 -10 -11 -10 -5 0 -7 5 -4 10 3 6 8 10 11 10 2
0 4 -4 4 -10z m247 -6 c-3 -3 -12 -4 -19 -1 -8 3 -5 6 6 6 11 1 17 -2 13 -5z
m-137 -24 c0 -5 -5 -10 -11 -10 -5 0 -8 -4 -5 -9 4 -5 -3 -7 -13 -4 -16 4 -17
8 -8 19 14 16 37 18 37 4z m135 0 c3 -6 -1 -7 -9 -4 -18 7 -21 14 -7 14 6 0
13 -4 16 -10z m-215 -10 c-20 -13 -43 -13 -35 0 3 6 16 10 28 10 18 0 19 -2 7
-10z m140 0 c8 -5 11 -10 5 -10 -5 0 -17 5 -25 10 -8 5 -10 10 -5 10 6 0 17
-5 25 -10z m-173 -76 c-3 -3 -12 -4 -19 -1 -8 3 -5 6 6 6 11 1 17 -2 13 -5z
m-82 -32 c-8 -8 -25 10 -19 20 4 6 9 5 15 -3 4 -7 6 -15 4 -17z m260 18 c-3
-5 -13 -10 -21 -10 -8 0 -12 5 -9 10 3 6 13 10 21 10 8 0 12 -4 9 -10z m-169
-15 c10 -8 15 -14 9 -14 -5 0 -19 6 -29 14 -11 8 -15 15 -10 15 6 0 19 -7 30
-15z m104 -11 c0 -2 -9 -4 -21 -4 -11 0 -18 4 -14 10 5 8 35 3 35 -6z m-193
-10 c-3 -3 -12 -4 -19 -1 -8 3 -5 6 6 6 11 1 17 -2 13 -5z m238 -14 c-3 -5
-11 -10 -16 -10 -6 0 -7 5 -4 10 3 6 11 10 16 10 6 0 7 -4 4 -10z m-240 -10
c-3 -5 -12 -10 -18 -10 -7 0 -6 4 3 10 19 12 23 12 15 0z m253 -30 c-7 -11
-19 -20 -27 -20 -11 0 -10 5 4 20 10 11 22 20 27 20 4 0 3 -9 -4 -20z m-181
-4 c0 -8 -8 -11 -21 -8 -19 5 -19 6 0 13 10 4 19 8 20 8 0 1 1 -5 1 -13z m273
10 c0 -2 -7 -6 -15 -10 -8 -3 -15 -1 -15 4 0 6 7 10 15 10 8 0 15 -2 15 -4z
m-327 -22 c-6 -17 -29 -18 -36 -1 -3 7 5 13 19 13 15 1 21 -3 17 -12z m132 6
c3 -5 2 -10 -4 -10 -5 0 -13 5 -16 10 -3 6 -2 10 4 10 5 0 13 -4 16 -10z m-42
-27 c-7 -2 -19 -2 -25 0 -7 3 -2 5 12 5 14 0 19 -2 13 -5z m-28 -74 c2 -2 -21
-4 -50 -5 -40 0 -52 3 -44 12 8 10 82 5 94 -7z m81 1 c0 -12 -4 -16 -9 -11 -5
5 -6 14 -3 20 10 15 12 14 12 -9z m144 10 c0 -5 -7 -7 -15 -4 -8 4 -15 8 -15
10 0 2 7 4 15 4 8 0 15 -4 15 -10z m-43 -26 c-3 -3 -12 -4 -19 -1 -8 3 -5 6 6
6 11 1 17 -2 13 -5z m40 0 c-3 -3 -12 -4 -19 -1 -8 3 -5 6 6 6 11 1 17 -2 13
-5z m-280 -10 c-3 -3 -12 -4 -19 -1 -8 3 -5 6 6 6 11 1 17 -2 13 -5z m280 -20
c-3 -3 -12 -4 -19 -1 -8 3 -5 6 6 6 11 1 17 -2 13 -5z m-137 -44 c-19 -13 -30
-13 -30 0 0 6 10 10 23 10 18 0 19 -2 7 -10z m90 6 c0 -9 -30 -14 -35 -6 -4 6
3 10 14 10 12 0 21 -2 21 -4z m60 -6 c0 -5 -2 -10 -4 -10 -3 0 -8 5 -11 10 -3
6 -1 10 4 10 6 0 11 -4 11 -10z"/>
<path d="M1405 2900 c3 -5 8 -10 11 -10 2 0 4 5 4 10 0 6 -5 10 -11 10 -5 0
-7 -4 -4 -10z"/>
<path d="M965 2840 c-3 -5 3 -10 14 -10 11 0 23 5 26 10 3 6 -3 10 -14 10 -11
0 -23 -4 -26 -10z"/>
<path d="M915 2830 l-30 -8 27 -1 c15 0 30 4 33 9 3 6 5 9 3 9 -2 -1 -16 -5
-33 -9z"/>
<path d="M1599 2818 c-4 -32 4 -102 22 -203 28 -154 25 -146 59 -133 24 8 30
16 30 38 0 62 -23 187 -41 230 -29 65 -67 101 -70 68z"/>
<path d="M428 2793 c7 -3 16 -2 19 1 4 3 -2 6 -13 5 -11 0 -14 -3 -6 -6z"/>
<path d="M1990 2650 c-17 -32 -9 -74 16 -78 19 -3 74 32 74 46 0 8 -62 52 -73
52 -3 0 -11 -9 -17 -20z"/>
<path d="M3242 2598 c-24 -50 -64 -367 -51 -411 5 -17 6 -41 3 -54 -7 -28 13
-83 31 -83 7 0 18 -13 25 -30 7 -16 15 -30 19 -30 4 0 28 -20 55 -44 26 -25
63 -52 82 -61 18 -8 36 -19 38 -24 12 -19 57 -21 81 -4 31 23 35 79 6 88 -35
11 -158 139 -170 177 -7 20 -19 42 -26 48 -35 29 -47 173 -29 372 l7 78 -30 0
c-21 0 -33 -7 -41 -22z"/>
<path d="M3616 2588 c-9 -12 -16 -42 -16 -65 0 -47 20 -67 77 -79 25 -5 33 -1
50 23 11 15 24 42 27 60 7 28 4 34 -31 57 -47 32 -87 34 -107 4z"/>
<path d="M3753 2225 c-13 -9 -23 -23 -23 -31 0 -8 -4 -14 -10 -14 -13 0 -13
-39 1 -77 28 -81 162 -17 145 69 -9 47 -17 55 -56 63 -24 4 -42 1 -57 -10z"/>
<path d="M2820 1940 c6 -11 12 -20 14 -20 2 0 2 9 -1 20 -3 11 -9 20 -15 20
-5 0 -4 -9 2 -20z"/>
<path d="M4100 1818 c0 -4 4 -8 9 -8 6 0 12 4 15 8 3 5 -1 9 -9 9 -8 0 -15 -4
-15 -9z"/>
<path d="M4105 1760 c3 -5 8 -10 11 -10 2 0 4 5 4 10 0 6 -5 10 -11 10 -5 0
-7 -4 -4 -10z"/>
<path d="M451 1709 c-14 -5 -21 -15 -18 -23 4 -9 -4 -17 -21 -21 -15 -4 -35
-14 -44 -22 -11 -10 -18 -11 -18 -5 0 6 -7 9 -15 6 -11 -5 -12 -10 -4 -26 9
-16 7 -20 -10 -25 -23 -6 -37 -33 -16 -33 7 0 27 -8 44 -17 30 -18 30 -18 61
12 17 16 33 40 36 52 4 13 12 23 20 23 8 0 14 7 14 15 0 9 6 18 14 21 8 3 12
13 9 24 -3 12 1 20 14 23 11 3 6 5 -12 5 -16 0 -41 -4 -54 -9z"/>
<path d="M4126 1700 c-19 -6 -19 -7 -1 -13 20 -8 29 -4 24 11 -2 5 -13 6 -23
2z"/>
<path d="M2975 1603 c-27 -14 -52 -27 -54 -29 -7 -7 105 -112 142 -134 63 -39
80 -21 57 60 -13 47 -66 130 -82 130 -7 -1 -35 -13 -63 -27z"/>
<path d="M268 1603 c7 -3 16 -2 19 1 4 3 -2 6 -13 5 -11 0 -14 -3 -6 -6z"/>
<path d="M4508 1603 c7 -3 16 -2 19 1 4 3 -2 6 -13 5 -11 0 -14 -3 -6 -6z"/>
<path d="M350 1475 c-19 -23 -1 -39 21 -19 10 9 19 21 19 26 0 13 -27 9 -40
-7z"/>
<path d="M2577 1399 l-38 -20 62 -67 c34 -37 92 -94 129 -127 37 -33 108 -98
158 -144 143 -132 178 -149 166 -83 -12 69 -56 132 -153 221 -52 47 -132 121
-177 164 -45 42 -88 77 -96 77 -7 -1 -30 -10 -51 -21z"/>
<path d="M17 1353 c-15 -4 -16 -7 -5 -20 10 -13 10 -17 1 -20 -10 -4 -13 -44
-13 -156 l0 -150 25 23 c34 32 48 81 41 148 -3 31 -5 85 -6 120 0 63 -2 66
-43 55z"/>
<path d="M4380 926 c0 -19 17 -29 25 -16 3 5 1 10 -5 10 -6 0 -8 5 -5 10 3 6
1 10 -4 10 -6 0 -11 -6 -11 -14z"/>
<path d="M4298 923 c7 -3 16 -2 19 1 4 3 -2 6 -13 5 -11 0 -14 -3 -6 -6z"/>
<path d="M4130 910 c0 -5 5 -10 10 -10 6 0 10 5 10 10 0 6 -4 10 -10 10 -5 0
-10 -4 -10 -10z"/>
<path d="M4190 899 c0 -5 5 -7 10 -4 6 3 10 8 10 11 0 2 -4 4 -10 4 -5 0 -10
-5 -10 -11z"/>
<path d="M4280 889 c0 -5 5 -7 10 -4 6 3 10 8 10 11 0 2 -4 4 -10 4 -5 0 -10
-5 -10 -11z"/>
<path d="M3831 874 c0 -11 3 -14 6 -6 3 7 2 16 -1 19 -3 4 -6 -2 -5 -13z"/>
<path d="M3930 870 c-13 -8 -12 -10 3 -10 9 0 17 5 17 10 0 12 -1 12 -20 0z"/>
<path d="M4180 850 c0 -5 5 -10 11 -10 5 0 7 5 4 10 -3 6 -8 10 -11 10 -2 0
-4 -4 -4 -10z"/>
<path d="M3716 822 c2 -3 -1 -11 -7 -18 -8 -9 -5 -16 11 -24 20 -11 21 -10 15
12 -4 12 -11 26 -15 29 -4 4 -5 4 -4 1z"/>
<path d="M3660 759 c0 -5 12 -9 26 -9 14 0 23 -4 20 -8 -3 -5 10 -4 29 2 19 6
35 15 35 20 0 4 -8 5 -17 1 -21 -9 -30 -9 -65 -2 -16 3 -28 1 -28 -4z"/>
<path d="M3840 750 c-12 -8 -9 -10 13 -10 16 0 26 4 22 10 -8 12 -16 12 -35 0z"/>
<path d="M3800 710 c0 -5 5 -10 11 -10 5 0 7 5 4 10 -3 6 -8 10 -11 10 -2 0
-4 -4 -4 -10z"/>
<path d="M3538 672 c-13 -5 -15 -11 -8 -22 9 -13 11 -13 20 0 9 14 13 31 8 29
-2 0 -11 -3 -20 -7z"/>
<path d="M3870 550 c0 -5 5 -10 10 -10 6 0 10 5 10 10 0 6 -4 10 -10 10 -5 0
-10 -4 -10 -10z"/>
<path d="M4423 553 c9 -2 17 -9 17 -14 0 -5 5 -9 11 -9 8 0 8 5 -1 15 -7 8
-20 14 -29 14 -13 -1 -13 -2 2 -6z"/>
<path d="M1428 509 c-24 -14 -23 -28 2 -22 11 3 20 12 20 19 0 16 0 16 -22 3z"/>
<path d="M1478 513 c7 -3 16 -2 19 1 4 3 -2 6 -13 5 -11 0 -14 -3 -6 -6z"/>
<path d="M3275 510 c-3 -6 1 -7 9 -4 18 7 21 14 7 14 -6 0 -13 -4 -16 -10z"/>
<path d="M1867 485 c-4 -8 -1 -17 6 -21 7 -4 9 -4 5 1 -4 4 -3 14 3 22 7 8 8
13 1 13 -5 0 -12 -7 -15 -15z"/>
<path d="M3540 490 c-13 -8 -12 -10 3 -10 9 0 17 5 17 10 0 12 -1 12 -20 0z"/>
<path d="M3388 483 c7 -3 16 -2 19 1 4 3 -2 6 -13 5 -11 0 -14 -3 -6 -6z"/>
<path d="M40 469 c0 -5 5 -7 10 -4 6 3 10 8 10 11 0 2 -4 4 -10 4 -5 0 -10 -5
-10 -11z"/>
<path d="M1500 465 c-11 -13 -10 -14 4 -9 9 3 16 10 16 15 0 13 -6 11 -20 -6z"/>
<path d="M1678 462 c-12 -5 -15 -11 -9 -21 8 -12 12 -12 25 2 26 26 20 33 -16
19z"/>
<path d="M118 453 c7 -3 16 -2 19 1 4 3 -2 6 -13 5 -11 0 -14 -3 -6 -6z"/>
<path d="M1820 450 c0 -5 7 -7 15 -4 8 4 15 8 15 10 0 2 -7 4 -15 4 -8 0 -15
-4 -15 -10z"/>
<path d="M272 438 c-16 -16 -15 -29 1 -22 8 3 14 11 14 19 0 18 0 18 -15 3z"/>
<path d="M3415 430 c-3 -5 -1 -10 4 -10 6 0 11 5 11 10 0 6 -2 10 -4 10 -3 0
-8 -4 -11 -10z"/>
<path d="M3575 430 c-3 -5 -1 -10 4 -10 6 0 11 5 11 10 0 6 -2 10 -4 10 -3 0
-8 -4 -11 -10z"/>
<path d="M3462 401 c1 -36 4 -38 17 -12 8 14 7 22 -4 31 -11 9 -14 6 -13 -19z"/>
<path d="M1265 410 c-3 -5 1 -10 10 -10 9 0 13 5 10 10 -3 6 -8 10 -10 10 -2
0 -7 -4 -10 -10z"/>
<path d="M1615 410 c-3 -4 4 -10 15 -13 11 -3 22 -2 25 3 3 4 -4 10 -15 13
-11 3 -22 2 -25 -3z"/>
<path d="M1784 405 c-10 -8 -14 -14 -9 -15 15 0 40 18 34 24 -3 3 -14 -1 -25
-9z"/>
<path d="M570 399 c0 -5 -5 -7 -12 -3 -8 5 -9 2 -5 -10 4 -10 7 -20 7 -22 0
-8 39 -4 44 4 3 5 -4 16 -15 25 -10 9 -19 12 -19 6z"/>
<path d="M4130 400 c0 -5 5 -10 10 -10 6 0 10 5 10 10 0 6 -4 10 -10 10 -5 0
-10 -4 -10 -10z"/>
<path d="M1095 384 c-21 -16 -5 -18 29 -5 16 6 17 9 5 13 -8 3 -23 0 -34 -8z"/>
<path d="M228 376 c-15 -8 -29 -12 -32 -9 -2 3 -14 2 -26 -2 -20 -6 -21 -7 -3
-21 24 -18 26 -17 53 6 12 11 25 18 29 16 3 -2 12 2 19 10 17 19 -3 19 -40 0z"/>
<path d="M451 374 c0 -11 3 -14 6 -6 3 7 2 16 -1 19 -3 4 -6 -2 -5 -13z"/>
<path d="M1878 383 c7 -3 16 -2 19 1 4 3 -2 6 -13 5 -11 0 -14 -3 -6 -6z"/>
<path d="M1250 375 c0 -7 30 -13 34 -7 3 4 -4 9 -15 9 -10 1 -19 0 -19 -2z"/>
<path d="M3300 370 c-13 -8 -12 -10 3 -10 9 0 17 5 17 10 0 12 -1 12 -20 0z"/>
<path d="M335 362 c-11 -2 -27 -11 -36 -19 -14 -11 -18 -12 -22 -1 -4 10 -8
10 -16 -2 -8 -12 -6 -16 12 -21 12 -3 26 -1 32 6 6 6 15 10 20 9 14 -5 38 12
34 23 -2 5 -13 7 -24 5z"/>
<path d="M685 350 c-3 -5 -1 -10 4 -10 6 0 11 5 11 10 0 6 -2 10 -4 10 -3 0
-8 -4 -11 -10z"/>
<path d="M890 350 c0 -5 7 -10 15 -10 8 0 15 5 15 10 0 6 -7 10 -15 10 -8 0
-15 -4 -15 -10z"/>
<path d="M405 340 c3 -5 11 -10 16 -10 6 0 7 5 4 10 -3 6 -11 10 -16 10 -6 0
-7 -4 -4 -10z"/>
<path d="M525 339 c-10 -15 1 -22 24 -14 12 3 19 11 16 16 -8 12 -32 11 -40
-2z"/>
<path d="M1158 338 c9 -9 15 -9 24 0 9 9 7 12 -12 12 -19 0 -21 -3 -12 -12z"/>
<path d="M3218 342 c-10 -2 -18 -8 -18 -13 0 -11 11 -11 30 1 18 11 11 18 -12
12z"/>
<path d="M4330 341 c0 -12 29 -23 41 -15 5 3 7 10 4 15 -8 12 -45 12 -45 0z"/>
<path d="M124 325 c-19 -14 -19 -14 2 -15 12 0 27 7 34 15 17 20 -9 21 -36 0z"/>
<path d="M2020 330 c-13 -9 -13 -10 0 -10 8 0 22 5 30 10 13 9 13 10 0 10 -8
0 -22 -5 -30 -10z"/>
<path d="M3378 333 c7 -3 16 -2 19 1 4 3 -2 6 -13 5 -11 0 -14 -3 -6 -6z"/>
<path d="M643 309 c14 -8 22 -8 30 0 8 8 3 11 -18 11 -26 -1 -28 -2 -12 -11z"/>
<path d="M772 311 c-10 -6 -7 -10 10 -13 16 -3 25 0 25 9 0 15 -16 17 -35 4z"/>
<path d="M1638 313 c7 -3 16 -2 19 1 4 3 -2 6 -13 5 -11 0 -14 -3 -6 -6z"/>
<path d="M1060 295 c-7 -9 -10 -18 -6 -22 3 -3 6 -1 6 5 0 7 6 12 14 12 8 0
18 5 21 10 10 16 -21 11 -35 -5z"/>
<path d="M1210 300 c0 -5 6 -10 14 -10 8 0 18 5 21 10 3 6 -3 10 -14 10 -12 0
-21 -4 -21 -10z"/>
<path d="M2620 299 c0 -5 5 -7 10 -4 6 3 10 8 10 11 0 2 -4 4 -10 4 -5 0 -10
-5 -10 -11z"/>
<path d="M403 293 c-28 -11 -12 -29 22 -25 34 4 42 11 28 25 -3 4 -13 1 -21
-6 -13 -9 -14 -9 -8 1 7 12 0 14 -21 5z"/>
<path d="M574 289 c-4 -8 -3 -10 4 -5 7 4 12 2 12 -3 0 -14 47 -14 55 -1 3 6
-3 10 -14 10 -10 0 -26 3 -34 6 -8 3 -18 0 -23 -7z"/>
<path d="M690 292 c0 -10 36 -9 46 1 4 4 -5 7 -19 7 -15 0 -27 -4 -27 -8z"/>
<path d="M2516 289 c4 -8 -1 -9 -17 -4 -22 7 -22 7 -6 -9 9 -10 14 -22 11 -28
-4 -6 7 -8 27 -6 19 2 32 8 30 13 -2 6 -12 9 -23 7 -21 -4 -24 8 -6 26 9 9 8
12 -6 12 -10 0 -14 -5 -10 -11z"/>
<path d="M2816 285 c6 -15 42 -27 49 -15 3 4 -8 13 -24 18 -24 8 -29 8 -25 -3z"/>
<path d="M4000 290 c0 -5 7 -7 15 -4 8 4 15 8 15 10 0 2 -7 4 -15 4 -8 0 -15
-4 -15 -10z"/>
<path d="M3926 282 c-3 -5 1 -9 9 -9 8 0 15 4 15 9 0 4 -4 8 -9 8 -6 0 -12 -4
-15 -8z"/>
<path d="M865 270 c-4 -6 -4 -10 -1 -10 2 0 11 -3 20 -6 9 -3 16 -2 16 4 0 14
-28 23 -35 12z"/>
<path d="M2355 270 c-3 -5 -1 -10 4 -10 6 0 11 5 11 10 0 6 -2 10 -4 10 -3 0
-8 -4 -11 -10z"/>
<path d="M2440 269 c0 -5 5 -7 10 -4 6 3 10 8 10 11 0 2 -4 4 -10 4 -5 0 -10
-5 -10 -11z"/>
<path d="M2590 268 c0 -4 7 -8 15 -8 8 0 15 4 15 8 0 5 -7 9 -15 9 -8 0 -15
-4 -15 -9z"/>
<path d="M3363 273 c9 -2 23 -2 30 0 6 3 -1 5 -18 5 -16 0 -22 -2 -12 -5z"/>
<path d="M3720 270 c0 -5 7 -10 15 -10 8 0 15 5 15 10 0 6 -7 10 -15 10 -8 0
-15 -4 -15 -10z"/>
<path d="M4185 270 c-13 -6 -15 -9 -5 -9 8 0 22 4 30 9 18 12 2 12 -25 0z"/>
<path d="M1494 255 c-18 -14 -18 -14 9 -15 15 0 27 4 27 9 0 18 -17 20 -36 6z"/>
<path d="M2250 260 c0 -5 11 -10 25 -10 14 0 25 5 25 10 0 6 -11 10 -25 10
-14 0 -25 -4 -25 -10z"/>
<path d="M1600 245 c0 -9 11 -13 30 -13 17 1 30 2 30 4 0 1 -13 7 -30 13 -24
8 -30 7 -30 -4z"/>
<path d="M297 237 c-4 -10 3 -17 19 -20 19 -3 24 -1 22 12 -4 21 -34 26 -41 8z"/>
<path d="M1718 243 c7 -3 16 -2 19 1 4 3 -2 6 -13 5 -11 0 -14 -3 -6 -6z"/>
<path d="M168 233 c7 -3 16 -2 19 1 4 3 -2 6 -13 5 -11 0 -14 -3 -6 -6z"/>
<path d="M2296 225 c-3 -8 -1 -15 4 -15 6 0 10 7 10 15 0 8 -2 15 -4 15 -2 0
-6 -7 -10 -15z"/>
<path d="M3000 229 c0 -5 5 -7 10 -4 6 3 10 8 10 11 0 2 -4 4 -10 4 -5 0 -10
-5 -10 -11z"/>
<path d="M3278 233 c7 -3 16 -2 19 1 4 3 -2 6 -13 5 -11 0 -14 -3 -6 -6z"/>
<path d="M2548 223 c7 -3 16 -2 19 1 4 3 -2 6 -13 5 -11 0 -14 -3 -6 -6z"/>
<path d="M170 210 c-18 -12 -2 -12 25 0 13 6 15 9 5 9 -8 0 -22 -4 -30 -9z"/>
<path d="M235 210 c3 -5 8 -10 11 -10 2 0 4 5 4 10 0 6 -5 10 -11 10 -5 0 -7
-4 -4 -10z"/>
<path d="M535 210 c-3 -5 1 -10 9 -10 9 0 16 5 16 10 0 6 -4 10 -9 10 -6 0
-13 -4 -16 -10z"/>
<path d="M578 213 c7 -3 16 -2 19 1 4 3 -2 6 -13 5 -11 0 -14 -3 -6 -6z"/>
<path d="M3688 213 c7 -3 16 -2 19 1 4 3 -2 6 -13 5 -11 0 -14 -3 -6 -6z"/>
<path d="M1455 200 c3 -5 8 -10 11 -10 2 0 4 5 4 10 0 6 -5 10 -11 10 -5 0 -7
-4 -4 -10z"/>
<path d="M4105 200 c-3 -5 -1 -10 4 -10 6 0 11 5 11 10 0 6 -2 10 -4 10 -3 0
-8 -4 -11 -10z"/>
<path d="M1377 193 c-13 -13 -7 -21 13 -16 11 3 17 9 14 14 -6 11 -18 12 -27
2z"/>
<path d="M2430 190 c0 -6 7 -10 15 -10 8 0 15 2 15 4 0 2 -7 6 -15 10 -8 3
-15 1 -15 -4z"/>
<path d="M3675 190 c-3 -5 -2 -10 4 -10 5 0 13 5 16 10 3 6 2 10 -4 10 -5 0
-13 -4 -16 -10z"/>
<path d="M4405 190 c4 -6 11 -8 16 -5 14 9 11 15 -7 15 -8 0 -12 -5 -9 -10z"/>
<path d="M750 180 c-8 -5 -10 -10 -5 -10 6 0 17 5 25 10 8 5 11 10 5 10 -5 0
-17 -5 -25 -10z"/>
<path d="M988 183 c7 -3 16 -2 19 1 4 3 -2 6 -13 5 -11 0 -14 -3 -6 -6z"/>
<path d="M4515 180 c-3 -5 -1 -10 4 -10 6 0 11 5 11 10 0 6 -2 10 -4 10 -3 0
-8 -4 -11 -10z"/>
<path d="M3405 170 c3 -5 10 -10 16 -10 5 0 9 5 9 10 0 6 -7 10 -16 10 -8 0
-12 -4 -9 -10z"/>
<path d="M198 163 c7 -3 16 -2 19 1 4 3 -2 6 -13 5 -11 0 -14 -3 -6 -6z"/>
<path d="M2505 160 c3 -5 12 -7 20 -3 21 7 19 13 -6 13 -11 0 -18 -4 -14 -10z"/>
<path d="M658 153 c7 -3 16 -2 19 1 4 3 -2 6 -13 5 -11 0 -14 -3 -6 -6z"/>
<path d="M278 143 c7 -3 16 -2 19 1 4 3 -2 6 -13 5 -11 0 -14 -3 -6 -6z"/>
<path d="M320 140 c0 -5 12 -10 28 -9 24 0 25 1 7 9 -27 12 -35 12 -35 0z"/>
<path d="M3791 134 c0 -11 3 -14 6 -6 3 7 2 16 -1 19 -3 4 -6 -2 -5 -13z"/>
<path d="M40 130 c-11 -7 -8 -8 13 -6 15 1 30 6 34 9 10 11 -30 8 -47 -3z"/>
<path d="M1385 130 c3 -5 11 -10 16 -10 6 0 7 5 4 10 -3 6 -11 10 -16 10 -6 0
-7 -4 -4 -10z"/>
<path d="M3050 110 c0 -5 5 -10 11 -10 5 0 7 5 4 10 -3 6 -8 10 -11 10 -2 0
-4 -4 -4 -10z"/>
<path d="M3610 109 c0 -5 5 -7 10 -4 6 3 10 8 10 11 0 2 -4 4 -10 4 -5 0 -10
-5 -10 -11z"/>
<path d="M3860 110 c0 -5 7 -7 15 -4 8 4 15 8 15 10 0 2 -7 4 -15 4 -8 0 -15
-4 -15 -10z"/>
<path d="M611 101 c-9 -6 -5 -8 13 -8 14 0 26 3 26 8 0 11 -21 11 -39 0z"/>
<path d="M750 100 c-13 -8 -12 -10 3 -10 9 0 17 5 17 10 0 12 -1 12 -20 0z"/>
<path d="M1468 103 c7 -3 16 -2 19 1 4 3 -2 6 -13 5 -11 0 -14 -3 -6 -6z"/>
<path d="M1195 90 c-3 -5 1 -10 9 -10 9 0 16 5 16 10 0 6 -4 10 -9 10 -6 0
-13 -4 -16 -10z"/>
<path d="M2555 90 c-16 -7 -17 -9 -3 -9 9 -1 20 4 23 9 7 11 7 11 -20 0z"/>
<path d="M3705 90 c-8 -13 15 -13 35 0 12 8 11 10 -7 10 -12 0 -25 -4 -28 -10z"/>
<path d="M1126 69 c-20 -19 -14 -23 16 -11 10 4 14 12 10 18 -5 8 -13 5 -26
-7z"/>
<path d="M3270 80 c0 -5 5 -10 11 -10 5 0 7 5 4 10 -3 6 -8 10 -11 10 -2 0 -4
-4 -4 -10z"/>
<path d="M3615 80 c-3 -5 -1 -10 4 -10 6 0 11 5 11 10 0 6 -2 10 -4 10 -3 0
-8 -4 -11 -10z"/>
<path d="M4024 65 c1 -23 16 -37 16 -16 0 5 3 16 6 25 4 10 1 16 -9 16 -10 0
-14 -9 -13 -25z"/>
<path d="M3448 73 c7 -3 16 -2 19 1 4 3 -2 6 -13 5 -11 0 -14 -3 -6 -6z"/>
<path d="M4125 70 c-3 -5 -1 -10 4 -10 6 0 11 5 11 10 0 6 -2 10 -4 10 -3 0
-8 -4 -11 -10z"/>
<path d="M1010 61 c0 -5 11 -11 25 -13 28 -6 34 6 9 16 -22 8 -34 7 -34 -3z"/>
<path d="M1396 61 c-4 -5 3 -7 14 -4 23 6 26 13 6 13 -8 0 -17 -4 -20 -9z"/>
<path d="M2018 63 c7 -3 16 -2 19 1 4 3 -2 6 -13 5 -11 0 -14 -3 -6 -6z"/>
<path d="M3955 60 c4 -6 1 -18 -6 -26 -10 -12 -9 -13 5 -8 9 4 16 1 16 -6 0
-10 3 -10 15 0 14 12 13 15 -4 31 -22 21 -36 25 -26 9z"/>
<path d="M4385 60 l-30 -8 30 -1 c17 0 37 4 45 9 13 9 13 10 0 9 -8 -1 -28 -5
-45 -9z"/>
<path d="M1307 33 c-14 -13 -6 -23 18 -23 16 0 25 6 25 15 0 15 -31 21 -43 8z"/>
<path d="M3175 30 c-3 -5 1 -10 9 -10 9 0 16 5 16 10 0 6 -4 10 -9 10 -6 0
-13 -4 -16 -10z"/>
<path d="M4140 19 c0 -11 4 -18 10 -14 5 3 7 12 3 20 -7 21 -13 19 -13 -6z"/>
<path d="M3520 20 c0 -5 5 -10 10 -10 6 0 10 5 10 10 0 6 -4 10 -10 10 -5 0
-10 -4 -10 -10z"/>
<path d="M1110 10 c0 -5 5 -10 11 -10 5 0 7 5 4 10 -3 6 -8 10 -11 10 -2 0 -4
-4 -4 -10z"/>
<path d="M1180 10 c0 -5 5 -10 10 -10 6 0 10 5 10 10 0 6 -4 10 -10 10 -5 0
-10 -4 -10 -10z"/>
<path d="M3448 13 c7 -3 16 -2 19 1 4 3 -2 6 -13 5 -11 0 -14 -3 -6 -6z"/>
</g>
</svg>
